# xmcd CD database file
# Copyright (C) 1995 Ti Kan
#
# Track frame offsets:
#	150
#	13209
#	26148
#	39142
#	51485
#	65587
#	80140
#	92205
#	102693
#	115728
#	129404
#	143244
#	157265
#	170731
#	184034
#	197901
#	209315
#	224402
#	236374
#	248241
#
# Disc length: 3491 seconds
#
# Revision: 1
# Processed by: cddbd v1.5.2PL0 Copyright (c) Steve Scherf et al.
# Submitted via: NotifyCDPlayer 1.60beta16
#
DISCID=320da114
DTITLE=Andrew Sisters - Bei Mir Bist Du Shön
DYEAR=1900
DGENRE=
TTITLE0=Aurora
TTITLE1=Beat Me Daddy, Eight To The Bar
TTITLE2=Beer Barrel Polka
TTITLE3=Begin The Beguine
TTITLE4=Bei Mir Bist Du Shön
TTITLE5=Billy Boy
TTITLE6=Boogie Woogie Bugle Boy
TTITLE7=Bounce Me Brother With A Solid Four
TTITLE8=Chattanooga Choo Choo
TTITLE9=Chico's Love Song
TTITLE10=Ciribiribin
TTITLE11=Don't Fence Me In
TTITLE12=Don't Sit Under The Apple Tree
TTITLE13=Down By The Ohio
TTITLE14=Ferryboat Serenade
TTITLE15=Hit The Road
TTITLE16=Hold Tight Hold Tight
TTITLE17=I Love You Much Too Much
TTITLE18=I Want My Mama
TTITLE19=Civilization (Bongo, Bongo, Bongo)
EXTD=
EXTT0=
EXTT1=
EXTT2=
EXTT3=
EXTT4=
EXTT5=
EXTT6=
EXTT7=
EXTT8=
EXTT9=
EXTT10=
EXTT11=
EXTT12=
EXTT13=
EXTT14=
EXTT15=
EXTT16=
EXTT17=
EXTT18=
EXTT19=
PLAYORDER=
